<svg version="1.0" xmlns="http://www.w3.org/2000/svg" width="240" height="240" viewBox="0 0 180 180"><path d="M10.5 1.4c-3.7 1.7-8 6.2-9.4 9.9-1.5 3.9-1.5 153.5 0 157.4 1.4 3.8 5.7 8.3 9.6 9.9 4.8 2.1 153.8 2.1 158.6 0 3.9-1.6 8.2-6.1 9.6-9.9.8-1.9 1.1-27.6 1.1-78.8 0-62.3-.2-76.5-1.4-79.2-1.6-3.9-6.1-8.2-9.9-9.6-4.6-1.8-154.3-1.4-158.2.3zm49.6 41.7c1.9.7 4.9 2.3 6.7 3.6 10.3 7.6 9.6 27.6-1.2 35.8-4.2 3.2-11.7 5.7-13.7 4.5-.7-.5-1.1-1.1-.9-1.3.3-.2 2-1.4 3.7-2.6 1.8-1.2 4.5-4.3 6-6.9 3.8-6.4 4-16 .5-21-6-8.4-18-8.4-25.9-.1-11.4 12.1-14.9 43.2-6.7 60.7 3.9 8.3 12.1 14.2 19.6 14.2 8.7-.1 16.8-6.2 22.5-17.2 1.8-3.5 2.8-4.7 3.1-3.6.5 2.6-6.5 15.2-11 19.9-13 13.4-33.8 10.7-43.4-5.6-4.3-7.4-5.8-14.1-5.8-26 0-12.6 1.3-19 6-29.4C25.3 55.7 32 48.8 42.7 44.4c6.4-2.6 12.2-3 17.4-1.3zm57.3.8c1.8 2.8 3.8 34.1 3.9 58.8.1 25.8.2 27.3 1.9 27.3 6.7 0 18.2-17.3 24.8-37.3 4.2-13 5.1-18.2 5.7-34l.6-15.9 3.6.7c2 .3 4.2 1.5 5 2.6.7 1 2 1.9 2.9 1.9 1.3 0 1.4 1.5.9 10.2-1.5 26-12.6 50.9-30 67.8-9.4 9-22 14.6-24.3 10.8-.4-.6-.9-13.8-1.1-29.2-.3-32.6-2.4-51.8-5.6-52.4-3.4-.7-12.4 4.6-14.1 8.2-3.2 6.8-1.3 16.1 4.8 23.3l2.8 3.3H96c-4.3 0-10.2-3.5-12.6-7.3-2.7-4.6-2.5-14.8.3-20.3 2.8-5.2 9.6-12 14.7-14.6 8-4.1 17.7-6.1 19-3.9z"/></svg>