<?xml version="1.0" standalone="no"?>
<!DOCTYPE svg PUBLIC "-//W3C//DTD SVG 20010904//EN"
 "http://www.w3.org/TR/2001/REC-SVG-20010904/DTD/svg10.dtd">
<svg version="1.0" xmlns="http://www.w3.org/2000/svg"
 width="180.000000pt" height="180.000000pt" viewBox="0 0 180.000000 180.000000"
 preserveAspectRatio="xMidYMid meet">
<metadata>
Created by potrace 1.11, written by Peter Selinger 2001-2013
</metadata>
<g transform="translate(0.000000,180.000000) scale(0.100000,-0.100000)"
fill="#000000" stroke="none">
<path d="M105 1786 c-37 -17 -80 -62 -94 -99 -15 -39 -15 -1535 0 -1574 14
-38 57 -83 96 -99 48 -21 1538 -21 1586 0 39 16 82 61 96 99 8 19 11 276 11
788 0 623 -2 765 -14 792 -16 39 -61 82 -99 96 -46 18 -1543 14 -1582 -3z
m496 -417 c19 -7 49 -23 67 -36 103 -76 96 -276 -12 -358 -42 -32 -117 -57
-137 -45 -7 5 -11 11 -9 13 3 2 20 14 37 26 18 12 45 43 60 69 38 64 40 160 5
210 -60 84 -180 84 -259 1 -114 -121 -149 -432 -67 -607 39 -83 121 -142 196
-142 87 1 168 62 225 172 18 35 28 47 31 36 5 -26 -65 -152 -110 -199 -130
-134 -338 -107 -434 56 -43 74 -58 141 -58 260 0 126 13 190 60 294 57 124
124 193 231 237 64 26 122 30 174 13z m573 -8 c18 -28 38 -341 39 -588 1 -258
2 -273 19 -273 67 0 182 173 248 373 42 130 51 182 57 340 l6 159 36 -7 c20
-3 42 -15 50 -26 7 -10 20 -19 29 -19 13 0 14 -15 9 -102 -15 -260 -126 -509
-300 -678 -94 -90 -220 -146 -243 -108 -4 6 -9 138 -11 292 -3 326 -24 518
-56 524 -34 7 -124 -46 -141 -82 -32 -68 -13 -161 48 -233 l28 -33 -32 0 c-43
0 -102 35 -126 73 -27 46 -25 148 3 203 28 52 96 120 147 146 80 41 177 61
190 39z"/>
</g>
</svg>
